<svg width="100" height="100" viewBox="0 0 100 100" fill="none" xmlns="http://www.w3.org/2000/svg">
  <!-- Rich Blue Background Circle -->
  <circle cx="50" cy="50" r="49" fill="#1e40af" stroke="none"/>
  
  <!-- Logo-style Cross Pattern -->
  <rect x="20" y="46" width="60" height="8" rx="4" fill="#ffffff" opacity="0.98"/>
  <rect x="46" y="20" width="8" height="60" rx="4" fill="#ffffff" opacity="0.98"/>
  
  <!-- Bolder Sporadic White Dots Close to Cross - Logo Style -->
  <!-- Main accent dots near cross endpoints -->
  <circle cx="35" cy="14" r="4" fill="#ffffff" opacity="0.95"/>
  <circle cx="65" cy="18" r="3.5" fill="#ffffff" opacity="0.9"/>
  <circle cx="14" cy="38" r="3.5" fill="#ffffff" opacity="0.92"/>
  <circle cx="86" cy="62" r="4" fill="#ffffff" opacity="0.95"/>
  <circle cx="35" cy="86" r="3.5" fill="#ffffff" opacity="0.9"/>
  <circle cx="65" cy="82" r="3" fill="#ffffff" opacity="0.88"/>
  
  <!-- Secondary accent dots around cross area -->
  <circle cx="30" cy="35" r="2.5" fill="#ffffff" opacity="0.85"/>
  <circle cx="70" cy="32" r="2.8" fill="#ffffff" opacity="0.87"/>
  <circle cx="32" cy="68" r="2.2" fill="#ffffff" opacity="0.82"/>
  <circle cx="68" cy="65" r="2.6" fill="#ffffff" opacity="0.86"/>
  
  <!-- Small detail dots for logo authenticity -->
  <circle cx="42" cy="28" r="1.8" fill="#ffffff" opacity="0.75"/>
  <circle cx="58" cy="25" r="1.5" fill="#ffffff" opacity="0.7"/>
  <circle cx="25" cy="58" r="1.8" fill="#ffffff" opacity="0.75"/>
  <circle cx="75" cy="55" r="1.6" fill="#ffffff" opacity="0.72"/>
  <circle cx="45" cy="72" r="1.4" fill="#ffffff" opacity="0.68"/>
  <circle cx="55" cy="75" r="1.7" fill="#ffffff" opacity="0.73"/>
  
  <!-- WILD Centered Document Box with Bold Lines - BIGGER! -->
  <rect x="35" y="32" width="30" height="36" rx="3" fill="#ffffff" opacity="0.98" stroke="rgba(30, 64, 175, 0.3)" stroke-width="0.5"/>
  <line x1="38" y1="38" x2="62" y2="38" stroke="#1e40af" stroke-width="1.5" opacity="0.9"/>
  <line x1="38" y1="43" x2="58" y2="43" stroke="#1e40af" stroke-width="1.5" opacity="0.85"/>
  <line x1="38" y1="48" x2="61" y2="48" stroke="#1e40af" stroke-width="1.5" opacity="0.9"/>
  <line x1="38" y1="53" x2="56" y2="53" stroke="#1e40af" stroke-width="1.5" opacity="0.8"/>
  <line x1="38" y1="58" x2="60" y2="58" stroke="#1e40af" stroke-width="1.5" opacity="0.85"/>
  <line x1="38" y1="63" x2="59" y2="63" stroke="#1e40af" stroke-width="1.5" opacity="0.8"/>

  <!-- Premium Rich Blue Highlight -->
  <ellipse cx="35" cy="30" rx="15" ry="10" fill="rgba(255, 255, 255, 0.2)" transform="rotate(-25 35 30)" opacity="0.9"/>
  
  <!-- Secondary highlight for depth -->
  <ellipse cx="42" cy="38" rx="8" ry="6" fill="rgba(255, 255, 255, 0.1)" transform="rotate(15 42 38)" opacity="0.7"/>
</svg>