<?xml version="1.0" encoding="UTF-8"?>
<svg width="96" height="96" viewBox="0 0 120 120" fill="none" xmlns="http://www.w3.org/2000/svg">
  <defs>
    <linearGradient id="mainGradient" x1="0%" y1="0%" x2="100%" y2="100%">
      <stop offset="0%" stopColor="#1e40af"/>
      <stop offset="50%" stopColor="#3730a3"/>
      <stop offset="100%" stopColor="#1e3a8a"/>
    </linearGradient>
    
    <linearGradient id="accentGradient" x1="0%" y1="0%" x2="100%" y2="100%">
      <stop offset="0%" stopColor="#ffffff" stopOpacity="0.98"/>
      <stop offset="100%" stopColor="#ffffff" stopOpacity="0.85"/>
    </linearGradient>
    
    <filter id="glow" x="-20%" y="-20%" width="140%" height="140%">
      <feGaussianBlur stdDeviation="2" result="coloredBlur"/>
      <feMerge> 
        <feMergeNode in="coloredBlur"/>
        <feMergeNode in="SourceGraphic"/>
      </feMerge>
    </filter>
  </defs>

  <!-- Main Circle Background -->
  <circle cx="60" cy="60" r="50" fill="url(#mainGradient)" filter="url(#glow)"/>

  <!-- Cross Pattern -->
  <rect x="25" y="56" width="70" height="8" rx="4" fill="url(#accentGradient)" opacity="0.98"/>
  <rect x="56" y="25" width="8" height="70" rx="4" fill="url(#accentGradient)" opacity="0.98"/>

  <!-- Sporadic White Dots -->
  <circle cx="42" cy="18" r="4" fill="url(#accentGradient)" opacity="0.95"/>
  <circle cx="78" cy="22" r="3.5" fill="url(#accentGradient)" opacity="0.9"/>
  <circle cx="18" cy="45" r="3.5" fill="url(#accentGradient)" opacity="0.92"/>
  <circle cx="102" cy="75" r="4" fill="url(#accentGradient)" opacity="0.95"/>
  <circle cx="42" cy="102" r="3.5" fill="url(#accentGradient)" opacity="0.9"/>
  <circle cx="78" cy="98" r="3" fill="url(#accentGradient)" opacity="0.88"/>
  <circle cx="36" cy="42" r="2.5" fill="url(#accentGradient)" opacity="0.85"/>
  <circle cx="84" cy="38" r="2.8" fill="url(#accentGradient)" opacity="0.87"/>
  <circle cx="38" cy="82" r="2.2" fill="url(#accentGradient)" opacity="0.82"/>
  <circle cx="82" cy="78" r="2.6" fill="url(#accentGradient)" opacity="0.86"/>
  <circle cx="50" cy="34" r="1.8" fill="url(#accentGradient)" opacity="0.75"/>
  <circle cx="70" cy="30" r="1.5" fill="url(#accentGradient)" opacity="0.7"/>
  <circle cx="30" cy="70" r="1.8" fill="url(#accentGradient)" opacity="0.75"/>
  <circle cx="90" cy="66" r="1.6" fill="url(#accentGradient)" opacity="0.72"/>
  <circle cx="54" cy="86" r="1.4" fill="url(#accentGradient)" opacity="0.68"/>
  <circle cx="66" cy="90" r="1.7" fill="url(#accentGradient)" opacity="0.73"/>

  <!-- WILD Document Box -->
  <rect x="42" y="38" width="36" height="44" rx="4" fill="url(#accentGradient)" opacity="0.98" 
        stroke="rgba(30, 64, 175, 0.3)" strokeWidth="0.5"/>
  
  <!-- Document Lines -->
  <line x1="46" y1="45" x2="74" y2="45" stroke="#1e40af" strokeWidth="1.5" opacity="0.9"/>
  <line x1="46" y1="51" x2="70" y2="51" stroke="#1e40af" strokeWidth="1.5" opacity="0.85"/>
  <line x1="46" y1="57" x2="73" y2="57" stroke="#1e40af" strokeWidth="1.5" opacity="0.9"/>
  <line x1="46" y1="63" x2="68" y2="63" stroke="#1e40af" strokeWidth="1.5" opacity="0.8"/>
  <line x1="46" y1="69" x2="72" y2="69" stroke="#1e40af" strokeWidth="1.5" opacity="0.85"/>
  <line x1="46" y1="75" x2="71" y2="75" stroke="#1e40af" strokeWidth="1.5" opacity="0.8"/>

  <!-- Premium Highlights -->
  <ellipse cx="42" cy="36" rx="18" ry="12" fill="rgba(255, 255, 255, 0.2)" transform="rotate(-25 42 36)" opacity="0.9"/>
  <ellipse cx="50" cy="45" rx="10" ry="8" fill="rgba(255, 255, 255, 0.1)" transform="rotate(15 50 45)" opacity="0.7"/>
</svg>